<svg width="640" height="147" viewBox="0 0 640 147" fill="none" xmlns="http://www.w3.org/2000/svg">
<g filter="url(#filter0_d_295_1037)">
<mask id="path-1-outside-1_295_1037" maskUnits="userSpaceOnUse" x="20.1058" y="5.87988" width="600" height="106" fill="black">
<rect fill="white" x="20.1058" y="5.87988" width="600" height="106"/>
<path d="M24.1058 106V11.4999H65.0108C73.4708 11.4999 80.7608 12.8949 86.8808 15.6849C93.0008 18.3849 97.7258 22.2999 101.056 27.4299C104.386 32.5599 106.051 38.6799 106.051 45.7899C106.051 52.8099 104.386 58.8849 101.056 64.0149C97.7258 69.1449 93.0008 73.1049 86.8808 75.8949C80.7608 78.5949 73.4708 79.9449 65.0108 79.9449H36.2558L45.9758 70.0899V106H24.1058ZM45.9758 72.5199L36.2558 62.1249H63.7958C70.5458 62.1249 75.5858 60.6849 78.9158 57.8049C82.2458 54.9249 83.9108 50.9199 83.9108 45.7899C83.9108 40.5699 82.2458 36.5199 78.9158 33.6399C75.5858 30.7599 70.5458 29.3199 63.7958 29.3199H36.2558L45.9758 18.9249V72.5199Z"/>
<path d="M167.021 107.62C159.551 107.62 152.621 106.405 146.231 103.975C139.931 101.545 134.441 98.1249 129.761 93.7149C125.171 89.3049 121.571 84.1299 118.961 78.1899C116.441 72.2499 115.181 65.7699 115.181 58.7499C115.181 51.7299 116.441 45.2499 118.961 39.3099C121.571 33.3699 125.216 28.1949 129.896 23.7849C134.576 19.3749 140.066 15.9549 146.366 13.5249C152.666 11.0949 159.506 9.87988 166.886 9.87988C174.356 9.87988 181.196 11.0949 187.406 13.5249C193.706 15.9549 199.151 19.3749 203.741 23.7849C208.421 28.1949 212.066 33.3699 214.676 39.3099C217.286 45.1599 218.591 51.6399 218.591 58.7499C218.591 65.7699 217.286 72.2949 214.676 78.3249C212.066 84.2649 208.421 89.4399 203.741 93.8499C199.151 98.1699 193.706 101.545 187.406 103.975C181.196 106.405 174.401 107.62 167.021 107.62ZM166.886 88.9899C171.116 88.9899 174.986 88.2699 178.496 86.8299C182.096 85.3899 185.246 83.3199 187.946 80.6199C190.646 77.9199 192.716 74.7249 194.156 71.0349C195.686 67.3449 196.451 63.2499 196.451 58.7499C196.451 54.2499 195.686 50.1549 194.156 46.4649C192.716 42.7749 190.646 39.5799 187.946 36.8799C185.336 34.1799 182.231 32.1099 178.631 30.6699C175.031 29.2299 171.116 28.5099 166.886 28.5099C162.656 28.5099 158.741 29.2299 155.141 30.6699C151.631 32.1099 148.526 34.1799 145.826 36.8799C143.126 39.5799 141.011 42.7749 139.481 46.4649C138.041 50.1549 137.321 54.2499 137.321 58.7499C137.321 63.1599 138.041 67.2549 139.481 71.0349C141.011 74.7249 143.081 77.9199 145.691 80.6199C148.391 83.3199 151.541 85.3899 155.141 86.8299C158.741 88.2699 162.656 88.9899 166.886 88.9899Z"/>
<path d="M280.124 107.62C272.834 107.62 266.039 106.45 259.739 104.11C253.529 101.68 248.129 98.2599 243.539 93.8499C238.949 89.4399 235.349 84.2649 232.739 78.3249C230.219 72.3849 228.959 65.8599 228.959 58.7499C228.959 51.6399 230.219 45.1149 232.739 39.1749C235.349 33.2349 238.949 28.0599 243.539 23.6499C248.219 19.2399 253.664 15.8649 259.874 13.5249C266.084 11.0949 272.879 9.87988 280.259 9.87988C288.449 9.87988 295.829 11.3199 302.399 14.1999C309.059 16.9899 314.639 21.1299 319.139 26.6199L305.099 39.5799C301.859 35.8899 298.259 33.1449 294.299 31.3449C290.339 29.4549 286.019 28.5099 281.339 28.5099C276.929 28.5099 272.879 29.2299 269.189 30.6699C265.499 32.1099 262.304 34.1799 259.604 36.8799C256.904 39.5799 254.789 42.7749 253.259 46.4649C251.819 50.1549 251.099 54.2499 251.099 58.7499C251.099 63.2499 251.819 67.3449 253.259 71.0349C254.789 74.7249 256.904 77.9199 259.604 80.6199C262.304 83.3199 265.499 85.3899 269.189 86.8299C272.879 88.2699 276.929 88.9899 281.339 88.9899C286.019 88.9899 290.339 88.0899 294.299 86.2899C298.259 84.3999 301.859 81.5649 305.099 77.7849L319.139 90.7449C314.639 96.2349 309.059 100.42 302.399 103.3C295.829 106.18 288.404 107.62 280.124 107.62Z"/>
<path d="M376.1 107.62C368.81 107.62 362.015 106.45 355.715 104.11C349.505 101.68 344.105 98.2599 339.515 93.8499C334.925 89.4399 331.325 84.2649 328.715 78.3249C326.195 72.3849 324.935 65.8599 324.935 58.7499C324.935 51.6399 326.195 45.1149 328.715 39.1749C331.325 33.2349 334.925 28.0599 339.515 23.6499C344.195 19.2399 349.64 15.8649 355.85 13.5249C362.06 11.0949 368.855 9.87988 376.235 9.87988C384.425 9.87988 391.805 11.3199 398.375 14.1999C405.035 16.9899 410.615 21.1299 415.115 26.6199L401.075 39.5799C397.835 35.8899 394.235 33.1449 390.275 31.3449C386.315 29.4549 381.995 28.5099 377.315 28.5099C372.905 28.5099 368.855 29.2299 365.165 30.6699C361.475 32.1099 358.28 34.1799 355.58 36.8799C352.88 39.5799 350.765 42.7749 349.235 46.4649C347.795 50.1549 347.075 54.2499 347.075 58.7499C347.075 63.2499 347.795 67.3449 349.235 71.0349C350.765 74.7249 352.88 77.9199 355.58 80.6199C358.28 83.3199 361.475 85.3899 365.165 86.8299C368.855 88.2699 372.905 88.9899 377.315 88.9899C381.995 88.9899 386.315 88.0899 390.275 86.2899C394.235 84.3999 397.835 81.5649 401.075 77.7849L415.115 90.7449C410.615 96.2349 405.035 100.42 398.375 103.3C391.805 106.18 384.38 107.62 376.1 107.62Z"/>
<path d="M429.37 106V11.4999H451.105V73.0599L496.195 11.4999H516.715V106H495.115V44.5749L450.025 106H429.37Z"/>
<path d="M594.109 106V76.1649L599.509 80.8899H573.589C565.399 80.8899 558.334 79.5399 552.394 76.8399C546.454 74.1399 541.909 70.2249 538.759 65.0949C535.609 59.9649 534.034 53.8449 534.034 46.7349C534.034 39.3549 535.699 33.0549 539.029 27.8349C542.449 22.5249 547.219 18.4749 553.339 15.6849C559.459 12.8949 566.659 11.4999 574.939 11.4999H615.709V106H594.109ZM534.304 106L557.794 72.1149H579.934L557.389 106H534.304ZM594.109 69.1449V23.6499L599.509 29.3199H575.479C569.269 29.3199 564.499 30.7599 561.169 33.6399C557.929 36.5199 556.309 40.7949 556.309 46.4649C556.309 51.9549 557.884 56.1849 561.034 59.1549C564.184 62.1249 568.819 63.6099 574.939 63.6099H599.509L594.109 69.1449Z"/>
</mask>
<path d="M24.1058 106V11.4999H65.0108C73.4708 11.4999 80.7608 12.8949 86.8808 15.6849C93.0008 18.3849 97.7258 22.2999 101.056 27.4299C104.386 32.5599 106.051 38.6799 106.051 45.7899C106.051 52.8099 104.386 58.8849 101.056 64.0149C97.7258 69.1449 93.0008 73.1049 86.8808 75.8949C80.7608 78.5949 73.4708 79.9449 65.0108 79.9449H36.2558L45.9758 70.0899V106H24.1058ZM45.9758 72.5199L36.2558 62.1249H63.7958C70.5458 62.1249 75.5858 60.6849 78.9158 57.8049C82.2458 54.9249 83.9108 50.9199 83.9108 45.7899C83.9108 40.5699 82.2458 36.5199 78.9158 33.6399C75.5858 30.7599 70.5458 29.3199 63.7958 29.3199H36.2558L45.9758 18.9249V72.5199Z" fill="white"/>
<path d="M167.021 107.62C159.551 107.62 152.621 106.405 146.231 103.975C139.931 101.545 134.441 98.1249 129.761 93.7149C125.171 89.3049 121.571 84.1299 118.961 78.1899C116.441 72.2499 115.181 65.7699 115.181 58.7499C115.181 51.7299 116.441 45.2499 118.961 39.3099C121.571 33.3699 125.216 28.1949 129.896 23.7849C134.576 19.3749 140.066 15.9549 146.366 13.5249C152.666 11.0949 159.506 9.87988 166.886 9.87988C174.356 9.87988 181.196 11.0949 187.406 13.5249C193.706 15.9549 199.151 19.3749 203.741 23.7849C208.421 28.1949 212.066 33.3699 214.676 39.3099C217.286 45.1599 218.591 51.6399 218.591 58.7499C218.591 65.7699 217.286 72.2949 214.676 78.3249C212.066 84.2649 208.421 89.4399 203.741 93.8499C199.151 98.1699 193.706 101.545 187.406 103.975C181.196 106.405 174.401 107.62 167.021 107.62ZM166.886 88.9899C171.116 88.9899 174.986 88.2699 178.496 86.8299C182.096 85.3899 185.246 83.3199 187.946 80.6199C190.646 77.9199 192.716 74.7249 194.156 71.0349C195.686 67.3449 196.451 63.2499 196.451 58.7499C196.451 54.2499 195.686 50.1549 194.156 46.4649C192.716 42.7749 190.646 39.5799 187.946 36.8799C185.336 34.1799 182.231 32.1099 178.631 30.6699C175.031 29.2299 171.116 28.5099 166.886 28.5099C162.656 28.5099 158.741 29.2299 155.141 30.6699C151.631 32.1099 148.526 34.1799 145.826 36.8799C143.126 39.5799 141.011 42.7749 139.481 46.4649C138.041 50.1549 137.321 54.2499 137.321 58.7499C137.321 63.1599 138.041 67.2549 139.481 71.0349C141.011 74.7249 143.081 77.9199 145.691 80.6199C148.391 83.3199 151.541 85.3899 155.141 86.8299C158.741 88.2699 162.656 88.9899 166.886 88.9899Z" fill="white"/>
<path d="M280.124 107.62C272.834 107.62 266.039 106.45 259.739 104.11C253.529 101.68 248.129 98.2599 243.539 93.8499C238.949 89.4399 235.349 84.2649 232.739 78.3249C230.219 72.3849 228.959 65.8599 228.959 58.7499C228.959 51.6399 230.219 45.1149 232.739 39.1749C235.349 33.2349 238.949 28.0599 243.539 23.6499C248.219 19.2399 253.664 15.8649 259.874 13.5249C266.084 11.0949 272.879 9.87988 280.259 9.87988C288.449 9.87988 295.829 11.3199 302.399 14.1999C309.059 16.9899 314.639 21.1299 319.139 26.6199L305.099 39.5799C301.859 35.8899 298.259 33.1449 294.299 31.3449C290.339 29.4549 286.019 28.5099 281.339 28.5099C276.929 28.5099 272.879 29.2299 269.189 30.6699C265.499 32.1099 262.304 34.1799 259.604 36.8799C256.904 39.5799 254.789 42.7749 253.259 46.4649C251.819 50.1549 251.099 54.2499 251.099 58.7499C251.099 63.2499 251.819 67.3449 253.259 71.0349C254.789 74.7249 256.904 77.9199 259.604 80.6199C262.304 83.3199 265.499 85.3899 269.189 86.8299C272.879 88.2699 276.929 88.9899 281.339 88.9899C286.019 88.9899 290.339 88.0899 294.299 86.2899C298.259 84.3999 301.859 81.5649 305.099 77.7849L319.139 90.7449C314.639 96.2349 309.059 100.42 302.399 103.3C295.829 106.18 288.404 107.62 280.124 107.62Z" fill="white"/>
<path d="M376.1 107.62C368.81 107.62 362.015 106.45 355.715 104.11C349.505 101.68 344.105 98.2599 339.515 93.8499C334.925 89.4399 331.325 84.2649 328.715 78.3249C326.195 72.3849 324.935 65.8599 324.935 58.7499C324.935 51.6399 326.195 45.1149 328.715 39.1749C331.325 33.2349 334.925 28.0599 339.515 23.6499C344.195 19.2399 349.64 15.8649 355.85 13.5249C362.06 11.0949 368.855 9.87988 376.235 9.87988C384.425 9.87988 391.805 11.3199 398.375 14.1999C405.035 16.9899 410.615 21.1299 415.115 26.6199L401.075 39.5799C397.835 35.8899 394.235 33.1449 390.275 31.3449C386.315 29.4549 381.995 28.5099 377.315 28.5099C372.905 28.5099 368.855 29.2299 365.165 30.6699C361.475 32.1099 358.28 34.1799 355.58 36.8799C352.88 39.5799 350.765 42.7749 349.235 46.4649C347.795 50.1549 347.075 54.2499 347.075 58.7499C347.075 63.2499 347.795 67.3449 349.235 71.0349C350.765 74.7249 352.88 77.9199 355.58 80.6199C358.28 83.3199 361.475 85.3899 365.165 86.8299C368.855 88.2699 372.905 88.9899 377.315 88.9899C381.995 88.9899 386.315 88.0899 390.275 86.2899C394.235 84.3999 397.835 81.5649 401.075 77.7849L415.115 90.7449C410.615 96.2349 405.035 100.42 398.375 103.3C391.805 106.18 384.38 107.62 376.1 107.62Z" fill="white"/>
<path d="M429.37 106V11.4999H451.105V73.0599L496.195 11.4999H516.715V106H495.115V44.5749L450.025 106H429.37Z" fill="white"/>
<path d="M594.109 106V76.1649L599.509 80.8899H573.589C565.399 80.8899 558.334 79.5399 552.394 76.8399C546.454 74.1399 541.909 70.2249 538.759 65.0949C535.609 59.9649 534.034 53.8449 534.034 46.7349C534.034 39.3549 535.699 33.0549 539.029 27.8349C542.449 22.5249 547.219 18.4749 553.339 15.6849C559.459 12.8949 566.659 11.4999 574.939 11.4999H615.709V106H594.109ZM534.304 106L557.794 72.1149H579.934L557.389 106H534.304ZM594.109 69.1449V23.6499L599.509 29.3199H575.479C569.269 29.3199 564.499 30.7599 561.169 33.6399C557.929 36.5199 556.309 40.7949 556.309 46.4649C556.309 51.9549 557.884 56.1849 561.034 59.1549C564.184 62.1249 568.819 63.6099 574.939 63.6099H599.509L594.109 69.1449Z" fill="white"/>
<path d="M24.1058 106V11.4999H65.0108C73.4708 11.4999 80.7608 12.8949 86.8808 15.6849C93.0008 18.3849 97.7258 22.2999 101.056 27.4299C104.386 32.5599 106.051 38.6799 106.051 45.7899C106.051 52.8099 104.386 58.8849 101.056 64.0149C97.7258 69.1449 93.0008 73.1049 86.8808 75.8949C80.7608 78.5949 73.4708 79.9449 65.0108 79.9449H36.2558L45.9758 70.0899V106H24.1058ZM45.9758 72.5199L36.2558 62.1249H63.7958C70.5458 62.1249 75.5858 60.6849 78.9158 57.8049C82.2458 54.9249 83.9108 50.9199 83.9108 45.7899C83.9108 40.5699 82.2458 36.5199 78.9158 33.6399C75.5858 30.7599 70.5458 29.3199 63.7958 29.3199H36.2558L45.9758 18.9249V72.5199Z" stroke="#2A335C" stroke-width="8" mask="url(#path-1-outside-1_295_1037)"/>
<path d="M167.021 107.62C159.551 107.62 152.621 106.405 146.231 103.975C139.931 101.545 134.441 98.1249 129.761 93.7149C125.171 89.3049 121.571 84.1299 118.961 78.1899C116.441 72.2499 115.181 65.7699 115.181 58.7499C115.181 51.7299 116.441 45.2499 118.961 39.3099C121.571 33.3699 125.216 28.1949 129.896 23.7849C134.576 19.3749 140.066 15.9549 146.366 13.5249C152.666 11.0949 159.506 9.87988 166.886 9.87988C174.356 9.87988 181.196 11.0949 187.406 13.5249C193.706 15.9549 199.151 19.3749 203.741 23.7849C208.421 28.1949 212.066 33.3699 214.676 39.3099C217.286 45.1599 218.591 51.6399 218.591 58.7499C218.591 65.7699 217.286 72.2949 214.676 78.3249C212.066 84.2649 208.421 89.4399 203.741 93.8499C199.151 98.1699 193.706 101.545 187.406 103.975C181.196 106.405 174.401 107.62 167.021 107.62ZM166.886 88.9899C171.116 88.9899 174.986 88.2699 178.496 86.8299C182.096 85.3899 185.246 83.3199 187.946 80.6199C190.646 77.9199 192.716 74.7249 194.156 71.0349C195.686 67.3449 196.451 63.2499 196.451 58.7499C196.451 54.2499 195.686 50.1549 194.156 46.4649C192.716 42.7749 190.646 39.5799 187.946 36.8799C185.336 34.1799 182.231 32.1099 178.631 30.6699C175.031 29.2299 171.116 28.5099 166.886 28.5099C162.656 28.5099 158.741 29.2299 155.141 30.6699C151.631 32.1099 148.526 34.1799 145.826 36.8799C143.126 39.5799 141.011 42.7749 139.481 46.4649C138.041 50.1549 137.321 54.2499 137.321 58.7499C137.321 63.1599 138.041 67.2549 139.481 71.0349C141.011 74.7249 143.081 77.9199 145.691 80.6199C148.391 83.3199 151.541 85.3899 155.141 86.8299C158.741 88.2699 162.656 88.9899 166.886 88.9899Z" stroke="#2A335C" stroke-width="8" mask="url(#path-1-outside-1_295_1037)"/>
<path d="M280.124 107.62C272.834 107.62 266.039 106.45 259.739 104.11C253.529 101.68 248.129 98.2599 243.539 93.8499C238.949 89.4399 235.349 84.2649 232.739 78.3249C230.219 72.3849 228.959 65.8599 228.959 58.7499C228.959 51.6399 230.219 45.1149 232.739 39.1749C235.349 33.2349 238.949 28.0599 243.539 23.6499C248.219 19.2399 253.664 15.8649 259.874 13.5249C266.084 11.0949 272.879 9.87988 280.259 9.87988C288.449 9.87988 295.829 11.3199 302.399 14.1999C309.059 16.9899 314.639 21.1299 319.139 26.6199L305.099 39.5799C301.859 35.8899 298.259 33.1449 294.299 31.3449C290.339 29.4549 286.019 28.5099 281.339 28.5099C276.929 28.5099 272.879 29.2299 269.189 30.6699C265.499 32.1099 262.304 34.1799 259.604 36.8799C256.904 39.5799 254.789 42.7749 253.259 46.4649C251.819 50.1549 251.099 54.2499 251.099 58.7499C251.099 63.2499 251.819 67.3449 253.259 71.0349C254.789 74.7249 256.904 77.9199 259.604 80.6199C262.304 83.3199 265.499 85.3899 269.189 86.8299C272.879 88.2699 276.929 88.9899 281.339 88.9899C286.019 88.9899 290.339 88.0899 294.299 86.2899C298.259 84.3999 301.859 81.5649 305.099 77.7849L319.139 90.7449C314.639 96.2349 309.059 100.42 302.399 103.3C295.829 106.18 288.404 107.62 280.124 107.62Z" stroke="#2A335C" stroke-width="8" mask="url(#path-1-outside-1_295_1037)"/>
<path d="M376.1 107.62C368.81 107.62 362.015 106.45 355.715 104.11C349.505 101.68 344.105 98.2599 339.515 93.8499C334.925 89.4399 331.325 84.2649 328.715 78.3249C326.195 72.3849 324.935 65.8599 324.935 58.7499C324.935 51.6399 326.195 45.1149 328.715 39.1749C331.325 33.2349 334.925 28.0599 339.515 23.6499C344.195 19.2399 349.64 15.8649 355.85 13.5249C362.06 11.0949 368.855 9.87988 376.235 9.87988C384.425 9.87988 391.805 11.3199 398.375 14.1999C405.035 16.9899 410.615 21.1299 415.115 26.6199L401.075 39.5799C397.835 35.8899 394.235 33.1449 390.275 31.3449C386.315 29.4549 381.995 28.5099 377.315 28.5099C372.905 28.5099 368.855 29.2299 365.165 30.6699C361.475 32.1099 358.28 34.1799 355.58 36.8799C352.88 39.5799 350.765 42.7749 349.235 46.4649C347.795 50.1549 347.075 54.2499 347.075 58.7499C347.075 63.2499 347.795 67.3449 349.235 71.0349C350.765 74.7249 352.88 77.9199 355.58 80.6199C358.28 83.3199 361.475 85.3899 365.165 86.8299C368.855 88.2699 372.905 88.9899 377.315 88.9899C381.995 88.9899 386.315 88.0899 390.275 86.2899C394.235 84.3999 397.835 81.5649 401.075 77.7849L415.115 90.7449C410.615 96.2349 405.035 100.42 398.375 103.3C391.805 106.18 384.38 107.62 376.1 107.62Z" stroke="#2A335C" stroke-width="8" mask="url(#path-1-outside-1_295_1037)"/>
<path d="M429.37 106V11.4999H451.105V73.0599L496.195 11.4999H516.715V106H495.115V44.5749L450.025 106H429.37Z" stroke="#2A335C" stroke-width="8" mask="url(#path-1-outside-1_295_1037)"/>
<path d="M594.109 106V76.1649L599.509 80.8899H573.589C565.399 80.8899 558.334 79.5399 552.394 76.8399C546.454 74.1399 541.909 70.2249 538.759 65.0949C535.609 59.9649 534.034 53.8449 534.034 46.7349C534.034 39.3549 535.699 33.0549 539.029 27.8349C542.449 22.5249 547.219 18.4749 553.339 15.6849C559.459 12.8949 566.659 11.4999 574.939 11.4999H615.709V106H594.109ZM534.304 106L557.794 72.1149H579.934L557.389 106H534.304ZM594.109 69.1449V23.6499L599.509 29.3199H575.479C569.269 29.3199 564.499 30.7599 561.169 33.6399C557.929 36.5199 556.309 40.7949 556.309 46.4649C556.309 51.9549 557.884 56.1849 561.034 59.1549C564.184 62.1249 568.819 63.6099 574.939 63.6099H599.509L594.109 69.1449Z" stroke="#2A335C" stroke-width="8" mask="url(#path-1-outside-1_295_1037)"/>
</g>
<defs>
<filter id="filter0_d_295_1037" x="0.105835" y="0.879883" width="639.603" height="145.74" filterUnits="userSpaceOnUse" color-interpolation-filters="sRGB">
<feFlood flood-opacity="0" result="BackgroundImageFix"/>
<feColorMatrix in="SourceAlpha" type="matrix" values="0 0 0 0 0 0 0 0 0 0 0 0 0 0 0 0 0 0 127 0" result="hardAlpha"/>
<feOffset dy="15"/>
<feGaussianBlur stdDeviation="10"/>
<feColorMatrix type="matrix" values="0 0 0 0 0 0 0 0 0 0 0 0 0 0 0 0 0 0 0.05 0"/>
<feBlend mode="normal" in2="BackgroundImageFix" result="effect1_dropShadow_295_1037"/>
<feBlend mode="normal" in="SourceGraphic" in2="effect1_dropShadow_295_1037" result="shape"/>
</filter>
</defs>
</svg>
